<?xml version="1.0" encoding="UTF-8"?>
<svg xmlns="http://www.w3.org/2000/svg" xmlns:xlink="http://www.w3.org/1999/xlink" viewBox="0 0 1300 400">
  <defs>
    <style>
      .cls-1 {
        fill: none;
      }

      .cls-2 {
        mix-blend-mode: color-burn;
      }

      .cls-3 {
        fill: #5eb3ff;
      }

      .cls-4 {
        fill: url(#linear-gradient-2);
      }

      .cls-5 {
        fill: url(#linear-gradient);
      }

      .cls-6 {
        isolation: isolate;
      }

      .cls-7 {
        fill: #ffd809;
      }

      .cls-8 {
        clip-path: url(#clippath-1);
      }

      .cls-9 {
        fill: #4e32b3;
      }

      .cls-10 {
        fill: #e57466;
      }

      .cls-11 {
        clip-path: url(#clippath);
      }

      .cls-12 {
        fill: #abe04a;
      }
    </style>
    <clipPath id="clippath">
      <rect class="cls-1" width="1300" height="400"/>
    </clipPath>
    <linearGradient id="linear-gradient" x1="336.88" y1="73.38" x2="1420.78" y2="531.37" gradientUnits="userSpaceOnUse">
      <stop offset="0" stop-color="#4e32b3"/>
      <stop offset=".46" stop-color="#3b6bbe"/>
      <stop offset="1" stop-color="#24b2cc"/>
    </linearGradient>
    <clipPath id="clippath-1">
      <rect class="cls-1" x="-4.45" y="-6.25" width="1305.04" height="422.24"/>
    </clipPath>
    <linearGradient id="linear-gradient-2" x1="174.57" y1="-44.63" x2="974.28" y2="212.81" xlink:href="#linear-gradient"/>
  </defs>
  <g class="cls-6">
    <g id="Layer_1" data-name="Layer 1">
      <g class="cls-11">
        <rect class="cls-5" x="-4.45" y="-6.25" width="1305.04" height="422.24"/>
        <g class="cls-8">
          <image class="cls-2" width="2424" height="1237" transform="translate(-4.45 -108.9) scale(.54)" xlink:href="../../../../../../Downloads/iStock-2228010907.jpg"/>
        </g>
        <g>
          <circle class="cls-7" cx="1108.17" cy="212.06" r="31.49"/>
          <path class="cls-7" d="M1231.51,173.59c.44-.2.9-.31,1.37-.39l-1.3.22c1.34-.22,2.71-.17,4.06-.04-.45-.05-.9-.09-1.35-.14,2.56.26,5.09.88,7.49,1.8-.42-.16-.85-.33-1.27-.49,1.75.68,3.44,1.53,4.97,2.64-.35-.26-.71-.52-1.06-.78.88.65,1.68,1.37,2.38,2.22l-.82-1.01c.47.59.88,1.22,1.2,1.9l-.53-1.18c.26.59.46,1.19.57,1.82-.07-.43-.14-.86-.22-1.3.11.66.13,1.33.07,1.99l.14-1.35c-.09.83-.29,1.63-.59,2.4l.49-1.27c-.46,1.17-1.1,2.24-1.83,3.26.26-.35.52-.71.78-1.06-.64.87-1.37,1.65-2.21,2.33.34-.27.67-.54,1.01-.82-.93.74-1.94,1.35-3.02,1.84l1.18-.53c-1.51.67-3.1,1.11-4.73,1.38.43-.07.86-.14,1.3-.22-2.99.48-6.04.43-9.04.14.45.05.9.09,1.35.14-2.92-.3-5.8-.84-8.65-1.51,1.05.76,2.1,1.52,3.15,2.28-3.63-6.89-7.86-13.43-13.03-19.27-4.72-5.34-10.37-9.88-16.55-13.44-3.9-2.25-8.01-4.02-12.21-5.6,1.3,1.58,2.6,3.17,3.9,4.75-.26-2.11-.31-4.23-.11-6.34-.05.45-.09.9-.14,1.35.2-1.93.6-3.83,1.28-5.64l-.49,1.27c.53-1.39,1.22-2.71,2.09-3.92-.26.35-.52.71-.78,1.06.73-.99,1.57-1.89,2.53-2.67-.34.27-.67.54-1.01.82.86-.68,1.78-1.25,2.77-1.71l-1.18.53c1.15-.52,2.35-.87,3.59-1.08l-1.3.22c1.57-.25,3.15-.27,4.74-.12-.45-.05-.9-.09-1.35-.14,1.95.21,3.91.62,5.74,1.32l-1.27-.49c.97.39,1.89.87,2.74,1.49-.35-.26-.71-.52-1.06-.78.66.49,1.25,1.05,1.76,1.69-.27-.34-.54-.67-.82-1.01.47.6.87,1.25,1.18,1.94l-.53-1.18c.37.83.62,1.7.78,2.59l-.22-1.3c.22,1.33.23,2.69.1,4.03.05-.45.09-.9.14-1.35-.21,2.01-.72,3.98-1.43,5.87.16-.42.33-.85.49-1.27-.31.79-.64,1.59-1.07,2.33-1.26,2.2-.51,5.05,1.47,6.5,1.89,1.38,5.06,1.42,6.64-.55,1.18-1.46,2.59-2.72,4.05-3.9l-1.01.82c3.49-2.81,7.36-5.17,11.43-7.03-.39.18-.79.36-1.18.53,2.63-1.19,5.36-2.17,8.21-2.66-.43.07-.86.14-1.3.22,1.47-.25,2.96-.36,4.44-.21-.45-.05-.9-.09-1.35-.14.92.1,1.81.29,2.67.62l-1.27-.49c.63.25,1.23.57,1.78.97l-1.06-.78c.53.39.99.84,1.41,1.35-.27-.34-.54-.67-.82-1.01.44.55.8,1.15,1.09,1.79-.18-.39-.36-.79-.53-1.18.31.7.53,1.44.66,2.2-.07-.43-.14-.86-.22-1.3.12.81.14,1.61.07,2.42l.14-1.35c-.12,1.2-.42,2.36-.85,3.49.16-.42.33-.85.49-1.27-.74,1.93-1.81,3.72-3.03,5.38.26-.35.52-.71.78-1.06-1.82,2.46-3.98,4.67-6.35,6.6.34-.27.67-.54,1.01-.82-1.48,1.2-3.07,2.33-4.81,3.12.39-.18.79-.36,1.18-.53-.28.12-.56.23-.85.33-2.52.83-4.3,3.71-3.38,6.33.9,2.54,3.63,4.26,6.33,3.38,2.23-.73,4.29-2.01,6.14-3.43,2.39-1.83,4.64-3.83,6.59-6.12,1.98-2.32,3.86-4.89,5.05-7.71.65-1.53,1.26-3.11,1.5-4.76.3-2.06.27-3.76-.1-5.79-.64-3.41-2.84-6.3-5.65-8.23-2.36-1.62-5.36-2.18-8.17-2.21-2.79-.03-5.65.59-8.3,1.43-2.94.94-5.79,2.24-8.52,3.68-2.62,1.39-5.14,2.99-7.51,4.79-2.16,1.65-4.38,3.4-6.09,5.53,2.71,1.98,5.41,3.97,8.12,5.95.75-1.3,1.27-2.77,1.77-4.17.54-1.52.94-3.09,1.15-4.69.35-2.64.35-5.03-.18-7.64-.52-2.55-1.86-4.84-3.58-6.76-2-2.23-4.85-3.6-7.67-4.45-2.97-.89-6.23-1.35-9.33-1.1-3.08.25-6.07,1.1-8.72,2.7-2.52,1.52-4.49,3.63-6.11,6.05-1.61,2.41-2.66,5.31-3.21,8.14-.62,3.25-.74,6.61-.34,9.89.14,1.13.43,2.08,1.16,2.98.77.95,1.59,1.34,2.74,1.77.2.08.41.16.61.23l-1.27-.49c5.7,2.2,11.15,5.02,16.09,8.63-.35-.26-.71-.52-1.06-.78,4.42,3.25,8.34,7.09,11.79,11.35-.27-.34-.54-.67-.82-1.01,2.64,3.29,5.01,6.79,7.15,10.43.57.97,1.13,1.95,1.68,2.94.26.47.52.95.77,1.42.72,1.35,1.56,2.49,3.06,3.06,1.35.52,2.83.75,4.25,1.02,1.14.21,2.28.4,3.43.55,7.07.93,15.12,1.04,21.3-3.1,5.42-3.63,9.24-10.44,7.57-17.02-.69-2.73-2.52-5.26-4.67-7.04-2.5-2.07-5.21-3.41-8.23-4.54-2.15-.81-4.4-1.37-6.69-1.65-2.64-.33-5.17-.46-7.78.15-.3.07-.6.16-.88.29-1.26.56-2.28,1.15-2.97,2.41-.61,1.1-.83,2.71-.41,3.92s1.22,2.38,2.41,2.97c1.14.56,2.71.95,3.92.41Z"/>
          <path class="cls-7" d="M1137.26,366.41c-62.92,0-114.11-51.19-114.11-114.11,0-4.83.31-9.69.91-14.44l14.17,1.79c-.53,4.16-.79,8.42-.79,12.65,0,55.05,44.78,99.83,99.83,99.83s99.83-44.78,99.83-99.83-44.78-99.83-99.83-99.83c-37.21,0-71.09,20.48-88.42,53.44l-12.64-6.65c19.81-37.67,58.54-61.08,101.06-61.08,62.92,0,114.11,51.19,114.11,114.11s-51.19,114.11-114.11,114.11Z"/>
          <rect class="cls-7" x="1097.29" y="354.13" width="14.28" height="31.11"/>
          <rect class="cls-7" x="1144.3" y="356.13" width="14.28" height="29.65"/>
          <path class="cls-7" d="M1010.49,215.32c-4.45-2.7-8.96-5.3-13.52-7.81-.2,3.74-.4,7.48-.6,11.22,8.78-3.72,17.91-6.59,27.23-8.59l-1.6.34c7.44-1.58,14.99-2.6,22.59-3.04-1.98-2.91-3.96-5.83-5.94-8.74-2.32,4.03-4.01,8.45-5.55,12.83-1.96,5.59-3.7,11.26-4.94,17.05-.55,2.55-1,5.12-1.23,7.72,3.32-1.15,6.63-2.3,9.95-3.46-8.55-6.2-17.36-12.04-26.39-17.52-1.28-.78-3.38-.74-4.73-.25-1.38.5-2.82,1.7-3.42,3.07-.64,1.47-.88,3.2-.25,4.73.63,1.54,1.65,2.55,3.07,3.42,3.78,2.3,7.53,4.66,11.23,7.09l-1.3-.86c4.69,3.09,9.31,6.28,13.86,9.57,1.8,1.3,3.85,1.89,6.03,1.11,1.83-.66,3.74-2.52,3.92-4.57.63-7.28,2.72-14.5,5.02-21.4-.17.5-.33,1-.5,1.5,1.68-5.02,3.54-10.1,6.19-14.7,1.07-1.85.71-4.44-.47-6.13-1.24-1.79-3.32-2.73-5.48-2.61-13.83.81-27.63,3.5-40.76,7.92-3.6,1.21-7.16,2.57-10.66,4.05-2.27.96-3.82,2.87-3.97,5.38s1.18,4.63,3.36,5.83c4.56,2.51,9.07,5.11,13.52,7.81,1.28.78,3.37.74,4.73.25s2.82-1.7,3.42-3.07c.64-1.47.88-3.2.25-4.73-.63-1.54-1.64-2.55-3.07-3.42Z"/>
          <path class="cls-9" d="M1131.95,216.41c-1.2-3.59-5.2-5.66-9.52-4.8l-5.35.92c-3.71.37-7.44,1.18-11.2,1.7-1.72-1.72-3.08-3.81-4.73-5.33-1.27-1.49-2.53-2.97-3.8-4.47-1.04-1.32-3.57-2.15-5.36-2.22-1.85-.08-4.1.53-5.42,1.66-1.37,1.17-2.42,2.74-2.4,4.46.02,1.81.76,3.19,2.03,4.64,2.15,2.46,4.3,4.92,6.46,7.38.97,1.11,1.88,2.3,3,3.31,2.21,1.99,4.94,3.24,8.14,3.52,2.25.2,4.54-.25,6.74-.59,1.76-.28,3.52-.55,5.28-.83,3.52-.55,7.04-1.1,10.55-1.66,3.88-.61,6.69-4.43,5.6-7.7Z"/>
          <path class="cls-7" d="M1143.01,263.08c.29,14.41,3.85,30.94,16.19,39.92,5.12,3.72,11.7,5.04,17.88,3.97,6.55-1.14,10.8-6.74,11.77-13.05.5-3.2.54-6.37.29-9.6-.18-2.35-.53-4.68-.66-7.03-2.59,1.48-5.17,2.97-7.76,4.45,3.49,1.9,6.87,3.99,10.52,5.56,4.61,1.98,9.53,3.3,14.33,1.13,3.63-1.64,5.86-5.43,6.19-9.29.24-2.89-.79-5.98-2.37-8.37-3.01-4.58-7.7-7.75-12.57-10.07-.41,3.14-.82,6.28-1.23,9.42,4.16-.82,8.31-2.44,12.09-4.32,4.84-2.41,9.88-6.29,10.23-12.12.31-5.12-3.85-9-7.92-11.34-4.32-2.48-9.23-4.08-14.06-5.25-2.79-.67-5.61-1.15-8.46-1.52-1.84-.24-3.72-.44-5.57-.31-2.68.19-5.29,2.23-5.16,5.16.12,2.63,2.28,5.36,5.16,5.16,1.43-.1,2.88,0,4.3.16.42.04.85.1,1.27.15-2.09-.24-.12,0,.4.08,1,.16,2,.35,3,.56,2.21.46,4.39,1.01,6.54,1.68,1.04.32,2.07.67,3.09,1.05.48.18.95.37,1.43.56.74.29-1.23-.54-.28-.12.28.12.55.24.83.37.88.41,1.74.85,2.57,1.34.4.24.79.48,1.18.75.16.11.31.22.47.33.61.42-1.1-.93-.32-.24.28.25.57.49.83.76.14.14.26.28.39.42.66.69-.58-.87-.32-.43.17.27.34.55.5.82.38.62-.33-.96-.29-.72.03.16.11.37.17.52.27.8-.15-.54-.08-.77-.04.12.02.38.02.51,0,.07-.04.29-.02.34-.03-.05.26-1.21.13-.96-.09.16-.12.48-.17.65-.2.77.42-.83.26-.6-.11.17-.19.37-.29.54-.09.16-.2.3-.3.46-.35.57.43-.65.47-.6,0,.01-.23.27-.25.29-.32.34-.64.68-.99.99-.16.14-.32.27-.48.41-.49.42,1.12-.82.18-.15-.84.6-1.72,1.14-2.63,1.63-.56.3-1.12.59-1.69.86-.29.14-.58.27-.87.4-.11.05-.22.1-.33.14-.63.29.52-.21.58-.24-.99.56-2.22.88-3.29,1.24-1.66.57-3.35,1.08-5.08,1.42-1.98.39-3.44,2.41-3.69,4.29s.62,4.26,2.46,5.14c2.07.99,4.09,2.1,5.96,3.45.33.24.75.75-.22-.18.13.13.3.24.44.35.34.28.68.58,1.01.88.56.52,1.06,1.08,1.56,1.65.69.79-.74-1.08-.09-.11.18.27.37.54.53.83.14.24.27.48.4.72.07.13.12.26.19.39.33.67-.5-1.35-.27-.62.14.44.28.86.38,1.31.22.95-.06-.55-.06-.63.01.23.04.46.05.69,0,.18,0,.35-.01.53,0,.6-.36.92.12-.78-.08.3-.16.62-.23.92-.16.7.69-1.36.34-.79-.18.29-.35.6-.52.9-.45.79.75-.78.3-.37-.14.13-.25.29-.39.42-.86.84,1.02-.61.02-.01-.15.09-.32.16-.46.25-.51.32,1.37-.46.55-.25-.31.08-.62.15-.92.23-.61.16,1.5-.11.62-.09-.15,0-.3.02-.44.02-.42,0-.84-.04-1.26-.07-.66-.03,1.46.26.54.06-.16-.04-.32-.06-.48-.1-.37-.08-.74-.18-1.11-.28-.87-.25-1.69-.58-2.54-.89-.65-.23,1.26.55.33.14-.26-.12-.52-.23-.78-.35-.43-.2-.86-.41-1.29-.62-.95-.47-1.88-.97-2.8-1.48-1.72-.95-3.41-1.94-5.14-2.88-3.26-1.77-7.98.39-7.76,4.45.24,4.25,1,8.44.79,12.71-.03.55-.08,1.1-.13,1.64-.09,1.02.25-1.5.04-.26-.05.3-.1.59-.16.89-.11.51-.23,1.02-.39,1.52-.09.27-.19.54-.28.82-.22.68.65-1.4.11-.28-.23.47-.51.91-.79,1.36-.04.07-.16.27-.21.3-.09.05.97-1.13.46-.61-.19.2-.37.41-.57.6-.38.37-1.19.74.26-.14-.22.13-.42.3-.63.43s-.46.25-.69.38c-1,.55,1.1-.36.19-.08-.61.19-1.21.35-1.84.48-.81.17,1.44-.14.15-.03-.37.03-.74.05-1.11.06-.56.01-1.12,0-1.68-.03-.28-.02-.55-.05-.83-.07-.4-.03-.84-.25.76.11-.2-.04-.41-.06-.61-.1-1.14-.2-2.24-.53-3.33-.92-1.06-.38.86.41.29.13-.25-.12-.5-.23-.74-.35-.55-.28-1.09-.58-1.62-.91-.47-.3-.93-.62-1.38-.94-.52-.37,1.09.88.21.15-.28-.23-.55-.46-.82-.7-.94-.85-1.81-1.78-2.61-2.76-.75-.92.55.76.09.13-.19-.25-.37-.51-.55-.76-.42-.59-.81-1.2-1.19-1.83-.75-1.24-1.41-2.52-2.01-3.84-.07-.16-.14-.32-.22-.48-.42-.93.48,1.2.1.24-.15-.38-.3-.76-.45-1.14-.31-.83-.6-1.68-.87-2.52-.56-1.8-1.03-3.63-1.4-5.48-.21-1.03-.39-2.06-.55-3.1-.03-.21-.06-.43-.09-.64-.14-.95.11.91.03.24-.06-.55-.13-1.1-.19-1.65-.23-2.24-.36-4.49-.4-6.74-.05-2.69-2.33-5.28-5.16-5.16-2.75.12-5.21,2.27-5.16,5.16h0Z"/>
          <path class="cls-7" d="M1103.03,375.41c-3.75.61-7.42,1.71-10.95,3.1-4.03,1.58-8.03,3.36-11.6,5.82-1.64,1.13-2.93,2.55-3.47,4.52-.5,1.81-.27,4.22.76,5.83,2.09,3.24,6.86,5.11,10.34,2.71,2.57-1.77,5.35-3.18,8.21-4.41l-1.81.76c4.02-1.7,8.22-3.05,12.54-3.75,1.75-.28,3.66-2.01,4.52-3.47.95-1.62,1.35-4.01.76-5.83-.59-1.83-1.73-3.59-3.47-4.52-1.91-1.01-3.71-1.11-5.83-.76h0Z"/>
          <path class="cls-7" d="M1101.19,389.42c3.67,3.9,7.33,7.79,11,11.69,1.3,1.39,3.47,2.21,5.35,2.21s4.07-.82,5.35-2.21,2.3-3.33,2.21-5.35c-.09-2.04-.8-3.84-2.21-5.35-3.67-3.9-7.33-7.79-11-11.69-1.3-1.39-3.47-2.21-5.35-2.21s-4.07.82-5.35,2.21c-1.32,1.44-2.3,3.33-2.21,5.35.09,2.04.8,3.84,2.21,5.35h0Z"/>
          <path class="cls-7" d="M1149.53,376.14c-7.24,2.05-14.02,6.13-19.07,11.72-1.34,1.49-2.21,3.3-2.21,5.35,0,1.85.82,4.07,2.21,5.35,1.44,1.32,3.33,2.3,5.35,2.21.67-.09,1.34-.18,2.01-.27,1.28-.36,2.39-1.01,3.34-1.94,1.59-1.34,3.18-2.69,4.77-4.03,1.41-1.19,2.21-3.57,2.21-5.35s-.82-4.07-2.21-5.35c-1.44-1.32-3.33-2.3-5.35-2.21-.67.09-1.34.18-2.01.27-1.28.36-2.39,1.01-3.34,1.94-1.59,1.34-3.18,2.69-4.77,4.03,3.56,3.56,7.13,7.13,10.69,10.69,1.32-1.47,2.77-2.81,4.32-4.03-.51.39-1.02.79-1.53,1.18,2.32-1.78,4.84-3.26,7.53-4.4-.6.25-1.2.51-1.81.76,1.27-.53,2.56-.98,3.88-1.35,1.84-.52,3.55-1.82,4.52-3.47s1.35-4.01.76-5.83c-.59-1.83-1.73-3.59-3.47-4.52-1.79-.95-3.83-1.33-5.83-.76h0Z"/>
          <path class="cls-7" d="M1150.72,393.7c.8.5,1.58,1.04,2.33,1.62-.51-.39-1.02-.79-1.53-1.18,1.82,1.42,3.46,3.06,4.88,4.89-.39-.51-.79-1.02-1.18-1.53,1.08,1.41,2.03,2.91,2.83,4.5.48.88,1.12,1.59,1.95,2.12.73.67,1.59,1.12,2.57,1.35,1.01.32,2.01.36,3.02.14,1.01-.05,1.94-.34,2.81-.9,1.61-1.04,3.04-2.59,3.47-4.52l.27-2.01c0-1.36-.35-2.64-1.03-3.82-1.41-2.81-3.32-5.41-5.44-7.73-2.12-2.32-4.65-4.33-7.31-5.99-.87-.55-1.8-.85-2.81-.9-1.01-.23-2.01-.18-3.02.14-1.75.48-3.65,1.84-4.52,3.47-.93,1.75-1.39,3.88-.76,5.83.62,1.91,1.75,3.45,3.47,4.52h0Z"/>
        </g>
        <g>
          <path class="cls-12" d="M802.65,154.98l-64.7,18.93c-2.73.8-4.29,3.73-3.47,6.52l12.89,44.05-4.34,16.54c-.3,1.18.07,2.53.95,3.39.69.67,1.57.92,2.4.68l66.08-19.33-3.28-11.21-55.62,16.27c-.26.07-.53.06-.74.03l.87-4.64c.11-.61.55-1.07,1.21-1.26l52.79-15.44-1.06-3.63-52.62,15.39c-1.53.45-3.15-.46-3.6-2.03l-11.2-38.28c-.46-1.56.41-3.2,1.94-3.65l59.64-17.45c1.53-.45,3.15.46,3.61,2.03l3.61,12.35,4.21-1.23-4.43-15.13c-.66-2.24-2.97-3.54-5.16-2.9ZM777.09,231.33l.36-2.59c.03-.25.17-.85.7-1l18.66-5.46c.36-.1.78.07,1.13.47l1.7,1.99c.08.09.13.26.07.46-.07.22-.25.41-.45.48l-21.34,6.24c-.21.06-.46,0-.64-.16-.14-.12-.21-.28-.18-.43Z"/>
          <path class="cls-10" d="M830.82,174.61c-.86-2.67-3.65-4.15-6.35-3.36l-19.14,5.6c-2.7.79-4.25,3.53-3.54,6.24.01.05.02.1.04.14l12.96,44.29c.8,2.73,3.66,4.3,6.39,3.5l19.14-5.6c2.73-.8,4.3-3.67,3.5-6.39l-12.96-44.29-.04-.14ZM841.48,218.19l-25.17,7.36-12.13-41.47,25.17-7.36,12.13,41.47Z"/>
        </g>
        <path class="cls-4" d="M705.78,16.14c.54.12,1.08.2,1.62.34l1.59.43,3.19.86c1.06.29,2.1.68,3.15,1.01,1.05.33,2.08.72,3.11,1.13,4.12,1.57,8.17,3.4,12.06,5.53,1.44.77,2.85,1.59,4.26,2.42l7.45-3.05c-2.77-1.83-5.62-3.57-8.55-5.18-4.11-2.29-8.4-4.31-12.82-5.99-1.1-.43-2.21-.86-3.34-1.22-1.13-.36-2.24-.78-3.38-1.1l-3.43-.94-1.72-.47c-.57-.15-1.16-.25-1.74-.37-9.26-2.05-18.8-2.71-28.22-2.17-9.43.59-18.73,2.39-27.72,5.08-2.27.61-4.46,1.46-6.69,2.19-2.21.78-4.38,1.68-6.56,2.52-4.31,1.85-8.57,3.79-12.7,6-16.31,8.67-30.77,19.89-45.08,30.84l6.99,3.28c13.38-10.18,26.77-20.23,41.36-27.94,3.93-2.13,7.99-3.99,12.09-5.76,2.08-.81,4.14-1.67,6.24-2.42,2.11-.7,4.2-1.51,6.34-2.1,8.52-2.58,17.3-4.3,26.14-4.88,8.84-.53,17.73.07,26.34,1.94ZM299.86,1.62c2.16.71,4.25,1.57,6.36,2.4,4.18,1.76,8.27,3.73,12.28,5.85,4,2.15,7.91,4.46,11.76,6.87,3.83,2.44,7.59,4.99,11.3,7.63,7.4,5.28,14.58,10.89,21.6,16.7l21,17.66c14.06,11.74,28.82,23.1,45.46,31.56,8.29,4.23,17,7.73,26.05,10.21,4.52,1.24,9.14,2.14,13.79,2.85,4.66.63,9.37.98,14.08,1.04,9.44.07,18.88-1.25,27.95-3.67,6.12-1.62,12.09-3.73,17.9-6.2l-8.05-3.77c-12.12,4.67-24.88,7.51-37.79,7.51-17.78.07-35.39-4.93-51.49-12.85-8.07-3.97-15.8-8.64-23.24-13.8-7.45-5.15-14.63-10.74-21.76-16.43l-21.38-17.23c-7.2-5.7-14.55-11.24-22.17-16.4-3.83-2.56-7.71-5.04-11.67-7.4-3.97-2.34-8.01-4.57-12.13-6.63-4.14-2.04-8.36-3.92-12.66-5.59-2.17-.79-4.33-1.6-6.54-2.26-2.19-.73-4.42-1.32-6.64-1.92-8.93-2.29-18.1-3.59-27.29-3.78-9.19-.12-18.4.8-27.26,3.08,8.95-1.94,18.14-2.49,27.23-2.02,9.1.46,18.12,1.99,26.84,4.51,2.17.65,4.35,1.29,6.48,2.08ZM835.75,14.64c5.15,9.19,9.37,18.95,13.06,28.91,3.69,9.97,6.85,20.18,9.98,30.42.2.65.39,1.29.59,1.94l5.52,2.85c-.57-2.03-1.15-4.05-1.73-6.08-2.93-10.33-6-20.66-9.63-30.85-3.63-10.19-7.82-20.23-13.04-29.83-10.4-19.21-24.91-36.08-41.85-49.8-16.94-13.74-36.31-24.47-56.95-31.59-20.64-7.09-42.6-10.5-64.49-9.68-10.94.43-21.85,1.9-32.5,4.56-2.64.74-5.31,1.41-7.92,2.2-2.61.82-5.22,1.64-7.78,2.58-2.59.87-5.11,1.9-7.66,2.86-2.51,1.04-5.04,2.04-7.52,3.14-19.91,8.67-38.56,19.41-57.88,28.24-9.64,4.39-19.48,8.31-29.59,11.23-2.51.78-5.07,1.37-7.61,2.04-2.56.54-5.11,1.18-7.69,1.58-5.14.96-10.33,1.53-15.52,1.77-5.19.31-10.38.02-15.52-.53-5.15-.55-10.18-1.77-15.13-3.21-2.43-.87-4.91-1.61-7.28-2.68-1.19-.52-2.41-.95-3.56-1.55l-3.49-1.72c-4.57-2.45-9.07-5.1-13.26-8.23l-1.59-1.14-1.54-1.21-3.08-2.44c-1.97-1.73-4.01-3.38-5.88-5.22-3.87-3.54-7.45-7.41-10.95-11.35-3.47-3.96-6.75-8.11-9.9-12.36-3.1-4.28-6.09-8.66-8.94-13.15-11.46-17.92-21.26-37.16-33.9-54.8-6.29-8.81-13.36-17.21-21.47-24.48-1.99-1.86-4.12-3.57-6.22-5.3-2.18-1.64-4.32-3.33-6.62-4.81-4.52-3.06-9.27-5.81-14.29-7.99-9.98-4.47-20.97-6.87-31.92-6.41-.68.03-1.37-.02-2.05.07l-2.04.23c-1.36.16-2.72.28-4.07.47l-4.01.83-2,.42-1.96.59-3.91,1.18-3.8,1.49-1.89.75c-.63.26-1.22.59-1.84.88l-3.65,1.79c-9.56,5.14-18.05,12.05-25.39,19.92-7.22,8-13.28,17-18.02,26.62,5.05-9.46,11.38-18.21,18.79-25.89,7.47-7.6,16-14.21,25.47-19l3.61-1.66c.6-.27,1.19-.57,1.81-.81l1.86-.68,3.72-1.36,3.82-1.05,1.91-.52,1.94-.36,3.89-.7c1.31-.15,2.62-.24,3.93-.36l1.96-.17c.65-.07,1.31,0,1.97-.02,10.52-.18,20.96,2.37,30.43,6.89,1.17.59,2.38,1.1,3.53,1.75l3.45,1.91c2.23,1.39,4.5,2.73,6.62,4.29,2.19,1.47,4.23,3.14,6.31,4.76,2,1.72,4.03,3.4,5.93,5.24,3.85,3.61,7.49,7.44,10.86,11.51,3.39,4.05,6.58,8.27,9.58,12.66,12.08,17.48,21.65,36.69,33.03,55.07,2.84,4.6,5.84,9.12,8.98,13.56,3.18,4.41,6.5,8.73,10.04,12.88,3.57,4.12,7.27,8.15,11.28,11.88,1.94,1.93,4.06,3.68,6.11,5.5l3.21,2.58,1.61,1.29,1.67,1.21c4.38,3.32,9.13,6.18,13.98,8.82l3.71,1.86c1.23.65,2.53,1.12,3.8,1.69,2.52,1.16,5.18,1.99,7.79,2.94,5.32,1.6,10.74,2.95,16.27,3.59,5.51.64,11.07.98,16.59.7.69-.03,1.38-.03,2.07-.07l2.06-.16c1.37-.12,2.76-.18,4.12-.36l4.1-.52c1.37-.16,2.71-.45,4.07-.67,2.72-.42,5.38-1.08,8.07-1.64,2.65-.69,5.32-1.3,7.93-2.11,10.52-3.01,20.66-7.03,30.55-11.5,19.72-8.98,38.37-19.63,57.82-28.05,2.42-1.08,4.87-2.06,7.31-3.07,2.47-.94,4.91-1.94,7.4-2.79,2.47-.91,4.98-1.71,7.48-2.5,2.51-.77,5.05-1.41,7.57-2.12,10.16-2.57,20.61-4,31.1-4.44,20.99-.87,42.12,2.43,62.08,9.11,19.96,6.71,38.77,16.94,55.24,30.09,16.44,13.16,30.63,29.26,40.92,47.67ZM595.35,134.52c-6.04,6.84-11.67,13.94-17.3,20.97-5.62,7.04-11.21,14.04-17.1,20.7-1.47,1.67-2.95,3.32-4.48,4.93-1.49,1.64-3.06,3.21-4.61,4.78-1.53,1.6-3.18,3.06-4.76,4.6-1.64,1.47-3.33,2.88-4.99,4.33l-2.5,2.16c-.83.73-1.75,1.34-2.62,2.01l-5.29,3.96c-1.79,1.29-3.68,2.42-5.52,3.64-1.85,1.2-3.67,2.45-5.63,3.47l-5.78,3.24c-.95.57-1.96,1.01-2.96,1.49l-2.99,1.43c-3.93,2.02-8.09,3.55-12.17,5.23-1.02.44-2.06.79-3.11,1.13l-3.15,1.05-3.15,1.05-1.57.52-1.6.43-6.41,1.72-1.6.43c-.54.13-1.08.23-1.62.34l-3.25.67c-8.64,1.95-17.48,2.88-26.32,3.48l-6.65.18c-1.11.01-2.22.1-3.32.05l-3.32-.11c-2.21-.08-4.43-.11-6.65-.24l-6.62-.62c-1.1-.11-2.21-.19-3.31-.32l-3.29-.51-6.58-1.02-6.5-1.42-3.25-.7-3.21-.9-6.42-1.81c-2.11-.69-4.2-1.45-6.3-2.17l-3.15-1.1c-1.05-.37-2.06-.84-3.09-1.25l-6.17-2.56c-8.07-3.75-16.04-7.79-23.53-12.67-15.18-9.41-28.87-21.2-40.92-34.47-1.56-1.61-2.95-3.37-4.4-5.08-1.42-1.73-2.91-3.42-4.28-5.19l-4.04-5.38c-.66-.91-1.38-1.78-1.99-2.71l-1.88-2.79c-1.25-1.86-2.54-3.71-3.77-5.59l-3.49-5.77c-.58-.96-1.17-1.92-1.74-2.89l-1.59-2.98-3.18-5.96c7.54,16.35,17.16,31.85,28.96,45.58,11.76,13.74,25.27,26.1,40.45,36.13,7.49,5.16,15.55,9.43,23.72,13.45l6.25,2.75c1.05.45,2.07.95,3.14,1.35l3.2,1.19c2.14.79,4.27,1.61,6.42,2.36l6.55,2,3.28.99,3.33.8,6.67,1.58,6.75,1.16,3.38.58c1.13.15,2.27.26,3.41.39l6.82.74c2.28.17,4.56.23,6.85.35l3.43.16c1.14.07,2.29,0,3.43,0l6.86-.09c9.13-.48,18.27-1.3,27.24-3.18l3.37-.65c.56-.11,1.13-.21,1.68-.34l1.66-.43,6.65-1.72,1.66-.43,1.64-.53,3.27-1.06,3.27-1.06c1.09-.34,2.18-.7,3.24-1.15,4.26-1.7,8.58-3.26,12.69-5.31l3.12-1.46c1.04-.5,2.09-.94,3.09-1.52l6.04-3.31c2.05-1.05,3.96-2.33,5.9-3.56,1.93-1.25,3.91-2.43,5.79-3.75l5.56-4.09c.92-.7,1.88-1.33,2.75-2.08l2.64-2.23c1.75-1.49,3.53-2.96,5.25-4.48,1.66-1.59,3.38-3.12,4.97-4.77,1.62-1.63,3.24-3.25,4.78-4.93,1.58-1.66,3.11-3.35,4.62-5.06,6.07-6.81,11.74-13.88,17.38-20.9,5.65-7.01,11.24-14.02,17.15-20.66,2.11-2.38,4.26-4.72,6.46-7l2.1-11.86c-4.86,4.53-9.4,9.36-13.74,14.28ZM918.66,216.38c-8.66-2.7-16.95-6.52-24.64-11.27-3.84-2.39-7.52-5.02-10.99-7.88-1.74-1.42-3.45-2.96-5.17-4.43-1.7-1.5-3.49-2.93-5.09-4.52-13.18-12.41-23.83-27.28-33.58-42.63-4.91-7.68-9.54-15.52-14.37-23.33-4.82-7.8-9.57-15.64-14.45-23.42-2.74-4.23-5.58-8.39-8.5-12.51l-5.41,2.21c3.22,4.36,6.35,8.78,9.37,13.29,4.95,7.65,9.8,15.39,14.71,23.08,4.91,7.68,9.7,15.54,14.82,23.16,10.17,15.27,21.29,30.23,35.1,42.65,1.69,1.59,3.53,2.97,5.3,4.45,1.8,1.45,3.53,2.93,5.38,4.35,3.67,2.85,7.53,5.44,11.52,7.78,8.01,4.64,16.58,8.29,25.47,10.79,8.88,2.5,18.13,3.79,27.34,3.46,9.2-.34,18.36-2.53,26.49-6.75-8.29,3.91-17.44,5.72-26.51,5.7-9.09.04-18.15-1.47-26.8-4.18ZM956.04,214.07c-5.2-1.2-10.16-3.28-14.77-5.92-9.26-5.28-17.2-12.61-24.22-20.59-7.02-8.02-13.17-16.78-18.71-25.89-2.21-3.65-4.3-7.36-6.33-11.12l-4.77-2.46c2.8,5.08,5.74,10.08,8.86,14.97,5.83,9.07,12.26,17.78,19.57,25.73,7.31,7.91,15.53,15.16,25.08,20.28,4.77,2.53,9.87,4.47,15.17,5.52,5.29,1.05,10.75,1.17,16.04.27-5.32.72-10.74.42-15.93-.79ZM736.42,128.35c-5.75-7.06-11.95-13.9-19.02-19.96-7.09-5.99-15.19-11.2-24.28-14.16l-1.69-.57c-.57-.16-1.16-.29-1.73-.44l-2.7-.67-1.18,6.68,2.13.52c.51.13,1.03.24,1.54.38l1.51.51c8.09,2.6,15.46,7.29,22.16,12.81,6.67,5.61,12.69,12.1,18.37,18.95,5.68,6.85,11.16,14.01,16.69,21.11,1.09,1.4,2.18,2.81,3.27,4.21l6.23-1.85c-1.55-2.03-3.1-4.06-4.65-6.09-5.48-7.16-10.87-14.36-16.63-21.43ZM950.8,231.39c-7.7,4.6-15.84,8.44-24.24,11.55-8.39,3.1-17.07,5.46-25.87,6.78-8.79,1.28-17.77,1.6-26.32-.37-8.67-1.88-17.12-4.72-25.19-8.42-.99-.46-1.97-.93-2.94-1.4l-5.78,1.72c2.34,1.17,4.7,2.29,7.1,3.34,8.39,3.63,17.16,6.41,26.15,8.11,4.52.9,9.2,1.22,13.78,1.08,4.59-.13,9.14-.66,13.63-1.46,8.97-1.62,17.71-4.26,26.11-7.65,8.4-3.4,16.51-7.5,24.13-12.38,7.57-4.92,14.74-10.59,20.62-17.43-6.14,6.61-13.48,11.95-21.17,16.53Z"/>
        <g>
          <g>
            <path class="cls-7" d="M768.29,75.45l.09.34,3.84,13.74.17.6c.17.61-.15,1.24-.72,1.47-.04.02-.08.03-.13.04-.65.18-1.33-.2-1.52-.85l-.09-.34-3.84-13.74-.17-.6c-.18-.65.2-1.33.85-1.51.66-.18,1.33.2,1.52.85Z"/>
            <path class="cls-7" d="M786.08,85.8s-.08.04-.12.06c-.57.23-1.24,0-1.54-.56l-.29-.55-6.74-12.58-.17-.31c-.32-.6-.1-1.34.5-1.66.6-.33,1.34-.1,1.66.5l.29.55,6.74,12.57.17.31c.32.6.1,1.34-.5,1.66Z"/>
          </g>
          <path class="cls-7" d="M792.35,82.77c.25.63-.05,1.35-.68,1.6l-25.15,10.11c-.63.25-1.35-.05-1.6-.68s.05-1.35.68-1.6l25.15-10.11c.63-.25,1.35.05,1.6.68Z"/>
          <path class="cls-7" d="M783.51,14.29l-59.59,23.96c-2.64,1.06-3.92,4.06-2.86,6.7l15.34,38.15c1.06,2.63,4.06,3.92,6.7,2.86l25.28-10.16,3.84,13.74,11.9-4.78-6.74-12.58,25.31-10.18c2.64-1.06,3.92-4.07,2.86-6.7l-15.34-38.15c-1.06-2.64-4.07-3.92-6.7-2.86ZM803.28,56.21c.55,1.38-.12,2.95-1.5,3.5l-59.59,23.96c-1.38.55-2.95-.12-3.5-1.49l-15.34-38.15c-.55-1.38.11-2.95,1.49-3.5l59.59-23.96c1.38-.55,2.95.11,3.5,1.49l15.34,38.15Z"/>
          <path class="cls-7" d="M801.73,52.36l1.55,3.85c.55,1.38-.12,2.95-1.5,3.5l-59.59,23.96c-1.38.55-2.95-.12-3.5-1.49l-1.55-3.85,64.59-25.97Z"/>
        </g>
        <g>
          <path class="cls-10" d="M545,89.3l2.31-4.45-1.38-.72c-.55-.29-.77-.97-.48-1.52l4.59-8.83c.29-.55.97-.77,1.52-.48l4.77,2.47c.55.29.77.97.48,1.52l-4.59,8.83c-.29.55-.97.77-1.52.48l-1.38-.72-2.31,4.45c5.9,2.42,12.8-.03,15.79-5.8l6.27-12.08c3.17-6.11.78-13.65-5.32-16.82s-13.65-.78-16.82,5.32l-6.27,12.08c-2.99,5.77-1.03,12.82,4.35,16.25Z"/>
          <rect class="cls-3" x="547.28" y="78.39" width="7.7" height="3.12" transform="translate(226.27 532.27) rotate(-62.57)"/>
        </g>
        <path class="cls-12" d="M916.65,116.63l-60.26-31.32c-2.24-1.16-5-.29-6.16,1.95l-11.6,22.31c-1.16,2.24-.29,5,1.95,6.16l60.26,31.32c2.24,1.16,5,.29,6.16-1.95l11.6-22.31c1.16-2.24.29-5-1.95-6.16ZM885.85,117.86l3.58,1.86c.61.31.84,1.06.53,1.67s-1.06.84-1.67.53l-3.58-1.86c-.61-.31-.84-1.06-.53-1.67s1.06-.84,1.67-.53ZM888.15,110.77c.31-.61,1.06-.84,1.67-.53l3.58,1.86c.61.31.84,1.06.53,1.67s-1.06.84-1.67.53l-3.58-1.86c-.61-.31-.84-1.06-.53-1.67ZM885.47,127.34c.61.31.84,1.06.53,1.67s-1.06.84-1.67.53l-21.19-11.01c-.61-.31-.84-1.06-.53-1.67s1.06-.84,1.67-.53l21.19,11.01ZM868.24,108.71l3.58,1.86c.61.32.84,1.06.53,1.67s-1.06.84-1.67.53l-3.58-1.86c-.61-.31-.84-1.06-.53-1.67s1.06-.84,1.67-.53ZM870.53,101.61c.31-.61,1.06-.84,1.67-.53l3.58,1.86c.61.32.84,1.06.53,1.67s-1.06.84-1.67.53l-3.58-1.86c-.61-.31-.84-1.06-.53-1.67ZM875.38,113.81c.31-.61,1.06-.84,1.67-.53l3.58,1.86c.61.31.84,1.06.53,1.67s-1.06.84-1.67.53l-3.58-1.86c-.61-.32-.84-1.06-.53-1.67ZM883.44,109.72l-3.58-1.86c-.61-.32-.84-1.06-.53-1.67s1.06-.84,1.67-.53l3.58,1.86c.61.31.84,1.06.53,1.67s-1.06.84-1.67.53ZM861.87,108.18l-3.58-1.86c-.61-.31-.84-1.06-.53-1.67s1.06-.84,1.67-.53l3.58,1.86c.61.31.84,1.06.53,1.67s-1.06.84-1.67.53ZM859.57,115.28c-.31.6-1.06.84-1.67.53l-3.58-1.86c-.61-.31-.84-1.06-.53-1.67s1.06-.84,1.67-.53l3.58,1.86c.61.31.84,1.06.53,1.67ZM865.83,100.56l-3.58-1.86c-.61-.31-.84-1.06-.53-1.67s1.06-.84,1.67-.53l3.58,1.86c.61.31.84,1.06.53,1.67s-1.06.84-1.67.53ZM857.02,95.99l-3.58-1.86c-.61-.31-.84-1.06-.53-1.67s1.06-.84,1.67-.53l3.58,1.86c.61.31.84,1.06.53,1.67s-1.06.84-1.67.53ZM854.73,103.08c-.31.6-1.06.84-1.67.53l-3.58-1.86c-.61-.31-.84-1.06-.53-1.67s1.06-.84,1.67-.53l3.58,1.86c.61.31.84,1.06.53,1.67ZM846.66,107.17l3.58,1.86c.61.31.84,1.06.53,1.67s-1.06.84-1.67.53l-3.58-1.86c-.61-.31-.84-1.06-.53-1.67s1.06-.84,1.67-.53ZM894.66,122.44l3.58,1.86c.61.31.84,1.06.53,1.67s-1.06.84-1.67.53l-3.58-1.86c-.61-.31-.84-1.06-.53-1.67s1.06-.84,1.67-.53ZM896.95,115.35c.31-.61,1.06-.84,1.67-.53l3.58,1.86c.61.31.84,1.06.53,1.67s-1.06.84-1.67.53l-3.58-1.86c-.61-.31-.84-1.06-.53-1.67ZM890.7,130.06l3.58,1.86c.61.31.84,1.06.53,1.67s-1.06.84-1.67.53l-3.58-1.86c-.61-.31-.84-1.06-.53-1.67s1.06-.84,1.67-.53ZM899.5,134.64l3.58,1.86c.61.31.84,1.06.53,1.67s-1.06.84-1.67.53l-3.58-1.86c-.61-.31-.84-1.06-.53-1.67s1.06-.84,1.67-.53ZM901.8,127.54c.31-.61,1.06-.84,1.67-.53l3.58,1.86c.61.31.84,1.06.53,1.67s-1.06.84-1.67.53l-3.58-1.86c-.61-.31-.84-1.06-.53-1.67ZM909.86,123.45l-3.58-1.86c-.61-.31-.84-1.06-.53-1.67s1.06-.84,1.67-.53l3.58,1.86c.61.31.84,1.06.53,1.67s-1.06.84-1.67.53Z"/>
        <g>
          <path class="cls-7" d="M629.63,80.04c-1.33,4.31,1.59,11.75,10.54,14.52l30.03,9.3c2.5.75,4.39-.76,4.97-2.65v-.03c.59-1.93-.15-4.29-2.68-5.06-.35-.11-.71-.21-1.07-.32l-1.19,3.84c-.17.56-.76.86-1.31.69s-.86-.76-.69-1.31l1.18-3.82c-7.22-2.17-15.96-4.83-19.11-5.86,1.87-1.69,2.84-4.2,2.51-6.71-.52-4.09-4.13-7.47-9.91-9.26-7.06-2.19-11.75,1.78-13.27,6.68ZM648.17,80.01c.25.28.31.66.21,1-.06.18-.16.35-.31.48-.44.38-1.1.33-1.48-.1-.36-.42-2.32-2.51-5.68-3.12-1.01-.18-2.04-.2-3.08-.04-.57.09-1.11-.31-1.2-.88-.09-.57.31-1.11.88-1.2,1.27-.19,2.54-.18,3.78.05,3.94.72,6.26,3.1,6.88,3.81Z"/>
          <path class="cls-7" d="M628.48,119.92c5.78,1.79,10.66,1.05,13.41-2.03,1.69-1.89,2.31-4.51,1.72-6.96,3.18.92,11.89,3.67,19.08,5.96l1.18-3.82c.17-.56.76-.86,1.31-.69s.86.76.69,1.31l-1.19,3.84c.36.12.72.23,1.07.34,2.53.8,4.47-.73,5.08-2.66v-.03c.59-1.89-.11-4.2-2.59-4.99l-30.03-9.3c-8.95-2.77-15.57,1.71-16.9,6.02-1.52,4.9.11,10.82,7.17,13.01ZM628.76,116.67c-1.15-.51-2.21-1.22-3.14-2.09-.42-.39-.45-1.06-.05-1.48.39-.42,1.06-.44,1.48-.05.77.72,1.63,1.29,2.56,1.71,3.11,1.39,5.92.77,6.45.63.56-.14,1.13.19,1.28.75.05.19.04.39-.01.57-.1.33-.37.61-.74.71-.91.24-4.17.88-7.83-.75Z"/>
        </g>
      </g>
    </g>
  </g>
</svg>